<?xml version="1.0" standalone="no"?>
<!DOCTYPE svg PUBLIC "-//W3C//DTD SVG 20010904//EN"
 "http://www.w3.org/TR/2001/REC-SVG-20010904/DTD/svg10.dtd">
<svg version="1.0" xmlns="http://www.w3.org/2000/svg"
 width="435.000000pt" height="104.000000pt" viewBox="0 0 435.000000 104.000000"
 preserveAspectRatio="xMidYMid meet">
<metadata>
Created by potrace 1.15, written by Peter Selinger 2001-2017
</metadata>
<g transform="translate(0.000000,104.000000) scale(0.100000,-0.100000)"
fill="#000000" stroke="none">
<path d="M200 525 l0 -225 135 0 135 0 0 45 0 45 45 0 45 0 0 90 0 90 -45 0
-45 0 0 45 0 45 -90 0 -90 0 0 45 0 45 -45 0 -45 0 0 -225z m260 -45 l0 -90
-85 0 -85 0 0 90 0 90 85 0 85 0 0 -90z"/>
<path d="M920 705 l0 -45 -45 0 -45 0 0 -45 0 -45 45 0 45 0 0 -135 0 -135 45
0 45 0 0 135 0 135 45 0 45 0 0 45 0 45 -45 0 -45 0 0 45 0 45 -45 0 -45 0 0
-45z"/>
<path d="M2720 525 l0 -225 135 0 135 0 0 45 0 45 45 0 45 0 0 90 0 90 -45 0
-45 0 0 45 0 45 -90 0 -90 0 0 45 0 45 -45 0 -45 0 0 -225z m260 -45 l0 -90
-85 0 -85 0 0 90 0 90 85 0 85 0 0 -90z"/>
<path d="M3170 525 l0 -225 45 0 45 0 0 225 0 225 -45 0 -45 0 0 -225z"/>
<path d="M1280 615 l0 -45 -45 0 -45 0 0 -45 0 -45 90 0 90 0 0 -45 0 -45 -90
0 -90 0 0 -45 0 -45 135 0 135 0 0 45 0 45 45 0 45 0 0 45 0 45 -90 0 -90 0 0
45 0 45 90 0 90 0 0 45 0 45 -135 0 -135 0 0 -45z"/>
<path d="M1910 615 l0 -45 -45 0 -45 0 0 -90 0 -90 45 0 45 0 0 -45 0 -45 135
0 135 0 0 45 0 45 -135 0 -135 0 0 90 0 90 135 0 135 0 0 45 0 45 -135 0 -135
0 0 -45z"/>
<path d="M2360 620 l0 -40 -45 0 -45 0 0 -100 0 -100 45 0 45 0 0 -40 0 -40
135 0 135 0 0 140 0 140 -45 0 -45 0 0 40 0 40 -90 0 -90 0 0 -40z m180 -140
l0 -90 -90 0 -90 0 0 90 0 90 90 0 90 0 0 -90z"/>
<path d="M3440 620 l0 -40 -45 0 -45 0 0 -100 0 -100 45 0 45 0 0 -40 0 -40
135 0 135 0 0 45 0 45 -45 0 -45 0 0 45 0 45 45 0 45 0 0 90 0 90 -135 0 -135
0 0 -40z m180 -90 l0 -40 -45 0 -45 0 0 -50 0 -50 -45 0 -45 0 0 90 0 90 90 0
90 0 0 -40z"/>
<path d="M3890 615 l0 -45 -45 0 -45 0 0 -45 0 -45 90 0 90 0 0 -45 0 -45 -90
0 -90 0 0 -45 0 -45 135 0 135 0 0 45 0 45 45 0 45 0 0 45 0 45 -90 0 -90 0 0
45 0 45 90 0 90 0 0 45 0 45 -135 0 -135 0 0 -45z"/>
<path d="M650 435 l0 -135 45 0 45 0 0 135 0 135 -45 0 -45 0 0 -135z"/>
<path d="M1640 435 l0 -135 45 0 45 0 0 135 0 135 -45 0 -45 0 0 -135z"/>
</g>
</svg>
